<?xml version="1.0" encoding="UTF-8"?>
<svg id="Layer_1" xmlns="http://www.w3.org/2000/svg" xmlns:xlink="http://www.w3.org/1999/xlink" version="1.1" viewBox="0 0 1572.8 211.7">
  <!-- Generator: Adobe Illustrator 29.0.1, SVG Export Plug-In . SVG Version: 2.1.0 Build 192)  -->
  <defs>
    <style>
      .st0 {
        fill: url(#linear-gradient2);
      }

      .st1 {
        fill: url(#linear-gradient1);
      }

      .st2 {
        fill: url(#linear-gradient9);
      }

      .st3 {
        fill: url(#linear-gradient3);
      }

      .st4 {
        fill: url(#linear-gradient6);
      }

      .st5 {
        fill: url(#linear-gradient8);
      }

      .st6 {
        fill: url(#linear-gradient7);
      }

      .st7 {
        fill: url(#linear-gradient5);
      }

      .st8 {
        fill: url(#linear-gradient4);
      }

      .st9 {
        fill: url(#linear-gradient18);
      }

      .st10 {
        fill: url(#linear-gradient13);
      }

      .st11 {
        fill: url(#linear-gradient12);
      }

      .st12 {
        fill: url(#linear-gradient15);
      }

      .st13 {
        fill: url(#linear-gradient16);
      }

      .st14 {
        fill: url(#linear-gradient11);
      }

      .st15 {
        fill: url(#linear-gradient10);
      }

      .st16 {
        fill: url(#linear-gradient17);
      }

      .st17 {
        fill: url(#linear-gradient14);
      }

      .st18 {
        fill: url(#linear-gradient19);
      }

      .st19 {
        fill: url(#linear-gradient22);
      }

      .st20 {
        fill: url(#linear-gradient21);
      }

      .st21 {
        fill: url(#linear-gradient20);
      }

      .st22 {
        fill: url(#linear-gradient);
      }

      .st23 {
        stroke: #1961ac;
      }

      .st23, .st24 {
        fill: none;
        stroke-miterlimit: 10;
        stroke-width: 1px;
      }

      .st25 {
        fill: #1961ac;
      }

      .st26 {
        fill: #fff;
      }

      .st24 {
        stroke: #f6f4f0;
      }
    </style>
    <linearGradient id="linear-gradient" x1="100.3" y1="193.5" x2="132" y2="193.5" gradientUnits="userSpaceOnUse">
      <stop offset="0" stop-color="#fff"/>
      <stop offset=".9" stop-color="#1961ac"/>
    </linearGradient>
    <linearGradient id="linear-gradient1" x1="162" y1="148.1" x2="181.7" y2="148.1" xlink:href="#linear-gradient"/>
    <linearGradient id="linear-gradient2" x1="214.4" y1="135.9" x2="248" y2="135.9" xlink:href="#linear-gradient"/>
    <linearGradient id="linear-gradient3" x1="249.1" y1="158.7" x2="266.6" y2="158.7" xlink:href="#linear-gradient"/>
    <linearGradient id="linear-gradient4" x1="212" y1="194.2" x2="240.1" y2="194.2" xlink:href="#linear-gradient"/>
    <linearGradient id="linear-gradient5" x1="176.8" y1="133.1" x2="211.3" y2="133.1" xlink:href="#linear-gradient"/>
    <linearGradient id="linear-gradient6" x1="234.3" y1="72.9" x2="283.7" y2="72.9" xlink:href="#linear-gradient"/>
    <linearGradient id="linear-gradient7" x1="205.1" y1="64.6" x2="231" y2="64.6" xlink:href="#linear-gradient"/>
    <linearGradient id="linear-gradient8" x1="263.4" y1="35" x2="298.1" y2="35" xlink:href="#linear-gradient"/>
    <linearGradient id="linear-gradient9" x1="162" y1="91.8" x2="180.6" y2="91.8" xlink:href="#linear-gradient"/>
    <linearGradient id="linear-gradient10" x1="43.4" y1="5.8" x2="43.4" y2="5.8" xlink:href="#linear-gradient"/>
    <linearGradient id="linear-gradient11" x1="213.1" y1="157.4" x2="245.7" y2="157.4" xlink:href="#linear-gradient"/>
    <linearGradient id="linear-gradient12" x1="72.3" y1="100.3" x2="110.4" y2="100.3" xlink:href="#linear-gradient"/>
    <linearGradient id="linear-gradient13" x1="59.6" y1="72.3" x2="110.8" y2="72.3" xlink:href="#linear-gradient"/>
    <linearGradient id="linear-gradient14" x1="132.1" y1="131.3" x2="165.7" y2="131.3" xlink:href="#linear-gradient"/>
    <linearGradient id="linear-gradient15" x1="92.3" y1="135" x2="129.6" y2="135" xlink:href="#linear-gradient"/>
    <linearGradient id="linear-gradient16" x1="194.9" y1="178.5" x2="220.7" y2="178.5" xlink:href="#linear-gradient"/>
    <linearGradient id="linear-gradient17" x1="209.6" y1="41.2" x2="243.6" y2="41.2" xlink:href="#linear-gradient"/>
    <linearGradient id="linear-gradient18" x1="110.6" y1="76.5" x2="164.8" y2="76.5" xlink:href="#linear-gradient"/>
    <linearGradient id="linear-gradient19" x1="75.4" y1="157.4" x2="92.3" y2="157.4" xlink:href="#linear-gradient"/>
    <linearGradient id="linear-gradient20" x1="76.9" y1="190.8" x2="118.7" y2="190.8" xlink:href="#linear-gradient"/>
    <linearGradient id="linear-gradient21" x1="43.4" y1="22.7" x2="95.4" y2="22.7" xlink:href="#linear-gradient"/>
    <linearGradient id="linear-gradient22" x1="179.2" y1="100.8" x2="243.6" y2="100.8" xlink:href="#linear-gradient"/>
  </defs>
  <rect class="st25" x="-199" y="-230.2" width="31.9" height="31.9"/>
  <g>
    <g>
      <g>
        <path class="st25" d="M383.4,104.7V36h30.3c11,0,20.4,9.4,20.4,20.4s-1.7,9-4.4,12.4c4.7,3.8,7.8,9.5,7.8,15.8,0,10.9-9.3,20.2-20.2,20.2h-33.9ZM410.1,62.9c3.3,0,6-2.7,6-6s-2.7-6-6-6h-8.7v11.9h8.7ZM413.5,89.9c3.3,0,6-2.7,6-6s-2.8-6-6-6h-12.1v11.9h12.1Z"/>
        <path class="st25" d="M474.5,77.3c0,5,4,9,9,9s9-4,9-9v-41.3h18.2v41.6c0,15.1-12.2,27.1-27.1,27.1s-27.1-12-27.1-27.1v-41.6h18.2v41.3Z"/>
        <path class="st25" d="M531,35.9h54.2v18h-18.2v50.9h-18.1v-50.9h-17.9v-18Z"/>
        <path class="st25" d="M604.4,35.9h54.2v18h-18.2v50.9h-18.1v-50.9h-17.9v-18Z"/>
        <path class="st25" d="M679.2,36h42.7v14.9h-24.7v11.2h21.8v15.2h-21.8v12.7h24.7v14.8h-42.7V36Z"/>
        <path class="st25" d="M782.8,104.7l-10.6-18.2h-11.2v18.2h-18.1V36h29c13.9,0,25.3,11.4,25.3,25.3s-3.2,13.9-8.2,18.5l14.6,24.9h-20.8ZM761,70.9h11.2c5.5,0,9.9-4.3,9.9-9.8s-4.4-9.9-9.9-9.9h-11.2v19.7Z"/>
        <path class="st25" d="M820.7,36h43.1v14.9h-25v11.2h22.1v15.3h-22.1v27.4h-18.1V36Z"/>
        <path class="st25" d="M884.9,36h18.1v50.6h24.8v18.2h-42.8V36Z"/>
        <path class="st25" d="M981.1,79.4v25.3h-17.9v-25.3l-25.1-43.5h20.8l13.2,22.9,13.3-22.9h20.8l-25.1,43.5Z"/>
        <path class="st25" d="M1071.6,36h43.1v14.9h-25v11.2h22.1v15.3h-22.1v27.4h-18.1V36Z"/>
        <path class="st25" d="M1135.6,36h18.1v68.8h-18.1V36Z"/>
        <path class="st25" d="M1226.2,104.7l-32.5-32.5v32.5h-18.1V36h7.3l32.5,32.5v-32.5h18.1v68.8h-7.4Z"/>
        <path class="st25" d="M1254.2,35.9h54.2v18h-18.2v50.9h-18.1v-50.9h-17.9v-18Z"/>
        <path class="st25" d="M1328.9,36h42.7v14.9h-24.7v11.2h21.8v15.2h-21.8v12.7h24.7v14.8h-42.7V36Z"/>
        <path class="st25" d="M1437,58.7c-2.8-2.8-6.9-4.5-11.5-4.5-9.4,0-16.1,6.8-16.1,16.1s6.8,16.1,16.1,16.1,8.7-1.6,11.5-4.6l12.8,12.7c-6.2,6.2-14.9,10.2-24.4,10.2-19,0-34.4-15.4-34.4-34.4s15.4-34.4,34.4-34.4,18,3.8,24.2,10l-12.7,12.7Z"/>
        <path class="st25" d="M1489.8,36v24.5h21.8v-24.5h18.1v68.8h-18.1v-26.2h-21.8v26.2h-18.1V36h18.1Z"/>
      </g>
      <g>
        <path class="st25" d="M383.4,141.7h20.3v7h-11.8v5.3h10.4v7.2h-10.4v12.9h-8.5v-32.4Z"/>
        <path class="st25" d="M413.6,141.7h8.5v32.4h-8.5v-32.4Z"/>
        <path class="st25" d="M456.3,174.1l-15.3-15.3v15.3h-8.5v-32.4h3.5l15.3,15.3v-15.3h8.5v32.4h-3.5Z"/>
        <path class="st25" d="M468,174.1l15.1-32.4h3.8l15.3,32.4h-8.5l-2-4.2h-13.3l-1.9,4.2h-8.5ZM481.8,162.7h6.6l-3.3-7.1-3.3,7.1Z"/>
        <path class="st25" d="M534.2,174.1l-15.3-15.3v15.3h-8.5v-32.4h3.5l15.3,15.3v-15.3h8.5v32.4h-3.5Z"/>
        <path class="st25" d="M566.8,152.4c-1.3-1.3-3.2-2.1-5.4-2.1-4.4,0-7.6,3.2-7.6,7.6s3.2,7.6,7.6,7.6,4.1-.8,5.4-2.2l6.1,6c-2.9,2.9-7,4.8-11.5,4.8-8.9,0-16.2-7.3-16.2-16.2s7.3-16.2,16.2-16.2,8.5,1.8,11.4,4.7l-6,6Z"/>
        <path class="st25" d="M583.1,141.7h8.5v32.4h-8.5v-32.4Z"/>
        <path class="st25" d="M599.8,174.1l15.1-32.4h3.8l15.3,32.4h-8.5l-2-4.2h-13.3l-1.9,4.2h-8.5ZM613.6,162.7h6.6l-3.3-7.1-3.3,7.1Z"/>
        <path class="st25" d="M642.2,141.7h8.5v23.9h11.7v8.6h-20.2v-32.4Z"/>
        <path class="st25" d="M719.2,162.6l-5.4,11.5h-6.1l-15-32.4h9.3l9.2,19.8,6.2-13.5h3.6l6.2,13.5,9.2-19.8h9.3l-15,32.4h-6.1l-5.4-11.5Z"/>
        <path class="st25" d="M753.3,141.7h8.5v32.4h-8.5v-32.4Z"/>
        <path class="st25" d="M796,174.1l-15.3-15.3v15.3h-8.5v-32.4h3.5l15.3,15.3v-15.3h8.5v32.4h-3.5Z"/>
        <path class="st25" d="M839.6,156.7v1.2c0,8.9-7.3,16.2-16.2,16.2s-16.2-7.3-16.2-16.2,7.2-16.2,16.2-16.2,8.5,1.8,11.4,4.7l-6,6c-1.4-1.3-3.2-2.2-5.4-2.2-4.1,0-7.6,3.2-7.6,7.7s3.7,7.7,7.6,7.7,4.9-1.3,6.3-3.2h-6.3v-5.7h16.2Z"/>
        <path class="st25" d="M860,151.6c0-1.3-1.1-2.5-2.5-2.5s-2.4,1.1-2.4,2.5,1.1,2.4,2.4,2.4c3.2,0,6,1.5,7.8,3.8,1.4,1.7,2.2,3.9,2.2,6.3,0,5.5-4.5,9.9-10,9.9s-10-4.4-10-10.1h7.6c0,1.4,1.1,2.5,2.4,2.5s2.5-1.1,2.5-2.4-1.1-2.5-2.5-2.5c-5.5,0-9.9-4.4-9.9-9.9s4.4-10,9.9-10,10,4.4,10,9.9h-7.5Z"/>
        <path class="st25" d="M900.7,141.7h20.3v7h-11.8v5.3h10.4v7.2h-10.4v12.9h-8.5v-32.4Z"/>
        <path class="st25" d="M946.5,141.7c8.9,0,16.2,7.3,16.2,16.3s-7.3,16.2-16.2,16.2-16.2-7.2-16.2-16.2,7.2-16.3,16.2-16.3ZM946.5,150.2c-4.2,0-7.7,3.5-7.7,7.7s3.5,7.7,7.7,7.7,7.7-3.5,7.7-7.7-3.5-7.7-7.7-7.7Z"/>
        <path class="st25" d="M991.2,174.1l-5-8.6h-5.3v8.6h-8.5v-32.4h13.7c6.6,0,11.9,5.4,11.9,11.9s-1.5,6.6-3.8,8.7l6.9,11.8h-9.8ZM980.9,158.2h5.3c2.6,0,4.7-2,4.7-4.6s-2.1-4.7-4.7-4.7h-5.3v9.3Z"/>
        <path class="st25" d="M1049.8,162.2v11.9h-8.4v-11.9l-11.8-20.5h9.8l6.2,10.8,6.3-10.8h9.8l-11.8,20.5Z"/>
        <path class="st25" d="M1083.4,141.7c8.9,0,16.2,7.3,16.2,16.3s-7.3,16.2-16.2,16.2-16.2-7.2-16.2-16.2,7.2-16.3,16.2-16.3ZM1083.4,150.2c-4.2,0-7.7,3.5-7.7,7.7s3.5,7.7,7.7,7.7,7.7-3.5,7.7-7.7-3.5-7.7-7.7-7.7Z"/>
        <path class="st25" d="M1117,161.2c0,2.3,1.9,4.2,4.2,4.2s4.2-1.9,4.2-4.2v-19.5h8.6v19.6c0,7.1-5.7,12.8-12.8,12.8s-12.8-5.7-12.8-12.8v-19.6h8.6v19.5Z"/>
        <path class="st25" d="M1163.1,174.1l-5-8.6h-5.3v8.6h-8.5v-32.4h13.7c6.6,0,11.9,5.4,11.9,11.9s-1.5,6.6-3.8,8.7l6.9,11.8h-9.8ZM1152.8,158.2h5.3c2.6,0,4.7-2,4.7-4.6s-2.1-4.7-4.7-4.7h-5.3v9.3Z"/>
        <path class="st25" d="M1204.3,141.7h12c8.9,0,16.2,7.3,16.2,16.2s-7.3,16.2-16.2,16.2h-12v-32.4ZM1212.7,165.7h3.6c4.2,0,7.7-3.5,7.7-7.7s-3.5-7.6-7.7-7.6h-3.6v15.3Z"/>
        <path class="st25" d="M1261,174.1l-5-8.6h-5.3v8.6h-8.5v-32.4h13.7c6.6,0,11.9,5.4,11.9,11.9s-1.5,6.6-3.8,8.7l6.9,11.8h-9.8ZM1250.7,158.2h5.3c2.6,0,4.7-2,4.7-4.6s-2.1-4.7-4.7-4.7h-5.3v9.3Z"/>
        <path class="st25" d="M1278.8,141.7h20.1v7h-11.6v5.3h10.3v7.2h-10.3v6h11.6v7h-20.1v-32.4Z"/>
        <path class="st25" d="M1306.8,174.1l15.1-32.4h3.8l15.3,32.4h-8.5l-2-4.2h-13.3l-1.9,4.2h-8.5ZM1320.5,162.7h6.6l-3.3-7.1-3.3,7.1Z"/>
        <path class="st25" d="M1366.2,153.7l13.2-12h3.8v32.4h-8.6v-16.6l-8.5,7.7-8.5-7.7v16.6h-8.6v-32.4h3.8l13.2,12Z"/>
        <path class="st25" d="M1405.5,151.6c0-1.3-1.1-2.5-2.5-2.5s-2.4,1.1-2.4,2.5,1.1,2.4,2.4,2.4c3.2,0,6,1.5,7.8,3.8,1.4,1.7,2.2,3.9,2.2,6.3,0,5.5-4.5,9.9-10,9.9s-10-4.4-10-10.1h7.6c0,1.4,1.1,2.5,2.4,2.5s2.5-1.1,2.5-2.4-1.1-2.5-2.5-2.5c-5.5,0-9.9-4.4-9.9-9.9s4.4-10,9.9-10,10,4.4,10,9.9h-7.5Z"/>
      </g>
    </g>
    <g>
      <path class="st25" d="M45.1,14.1c1.7,6.2,3.7,12.3,5.5,18.4s.1,1,.3,1.6c2.8,9.6,5.7,19.1,8.4,28.7,4,14.4,7.3,29.1,11.4,43.5,7.6,3.1,16,4.4,24.1,6.1.6.1,1.2,0,1.7,0s1,.5,1.5.6c4.8,1,9.6,1.9,14.3,2.9-3.8,2.6-7.5,5.5-11.3,8.1-7.2,4.9-14.8,9.5-21.9,14.6-1.1,3.5-1,7.3-1.1,10.9-.3.1-.6,3.1-.6,3.7-.8,6.6-1.7,14.5-1.9,21.1,0,.6,0,1.3,0,1.9,0,.1.3.2.3.3s.3.2.3.3c2.4,4,8.5,9.7,11.8,13.6s8,10.6,12.4,14.2,0,.8.5.9,1.7-.3,2.2-.4c7.9-1.3,17.4-3.3,25.1-5.2s1.9-.3,2.6-.7.5-.7.7-.8.4,0,.7-.2c.5-.6,1-2,1.3-2.8,5.5-11.9,11-25.7,15.8-38,2.6-6.6,4.5-13.3,6.8-20,2.6-7.8,6.8-17.6,8.4-25.5s0-.8,0-1,0-.2,0-.3c1.6-1.5,2.3-4.6,2.3-6.8,0,0-.3-1,.6-.6,0,1.2,0,2.5,0,3.7-.5,6.5-3.1,13.4-3.5,19.9s0,.4,0,.6c-.8.7-.5,1.2-.6,1.9-.7,2.9-1.8,5.9-1.3,8.7s.6,1.7.6,1.9c.2,1,.2,2.2.5,3.2,2.8,12.7,6,25.3,8.6,38.1.5,0,.5-.6.5-.9,2.1-7.6,3.4-15.4,5.3-23s0-.2,0-.3c0-.2,0-.5,0-.6,1.2-5.1,3.3-10.5,4.4-15.8.1-.7,0-2.5.1-2.6.4-.6,1.2.3.9-2.4-1-9.5-5-20-6.1-29.9h.3c0,.4.3.7.3,1,.8,3.6,3.2,7.8,4.5,11.5,3.4,9.1,6.4,18.8,9.4,27.9,1.2,3.8,2.3,7.8,3.6,11.6s0,1.1.3,1.9c3.2,10.1,9.1,23.3,13.5,33.2.9,2,1.5,3.1,2.6,4.6s.2.7.3,1-.2.5.2.7c.7.3,2.2.4,3,.6,5.2,1.3,10.5,2.2,15.8,3.2,2.9.6,6.9,2,9.7,2.3s1.3.1,1.8-.3c7.9-9.6,16-19,24.4-28.3.2-.2.2-.5.3-.8.2-.8,0-1.9,0-2.9-.2-3.6-.6-7.4-1-11s-.2-3.1-.4-4.6-.2-1.4-.6-1.8c0-.3,0-.6,0-1,0-4.5,0-9.7-1-14.2s-.7-1.8-2.2-2.9c-8.8-6.4-19.1-13.1-28.4-18.8-.9-.6-1.6-.9-2.6-1.3s-.6.3-.5-.6c3.3-.4,6.5-1.2,9.8-2,10-2.5,20.1-4.8,30-7.7s1.5-.1,2.6-.6.4.1.6,0c3.8-14,7.1-28.2,10.7-42.2,0-.4,0-.9,0-1.3,1,.2.6-.5.7-1.1,3.6-17.6,9.7-35.4,13.5-53.2,0-.3,1.3-2.7.2-2.5l-51,15.5c-1.7.6-3,1.3-4.4,2.2-7.4,4.4-16.5,12-23.5,17.3-3.1,2.3-6.1,4.7-9.1,7.2s-1,.8-1.6,1.3c-1.4,1.3-1.7,1.3-2.8,3.1-8.6,13-16.6,27.2-24.7,40.6s-3.8,5-4.1,7h-.3c1.1-6,4.4-11.2,4.5-17.4s.3-1.3.2-1.9l-6.2-14.8c-.2-.4,0-.8.2-1.1.9-3.4,5.2-11.2,7.1-14.6,4.4-7.9,10.4-16.8,17-23,1-.9,4.7-4.2,5.8-4.2,2,0,2.9,1.1,5.3.2s4.5-3.6,4.7-5.6c.6-9.3-12.1-9.7-13.3-.8s.5,2,0,3-3.8,3.2-4.7,4c-11.6,11-19.3,25.1-25.5,39.6-.8.2-.5-.1-.7-.5-1.9-3.8-3.4-8.2-5.3-12.1-4.3-8.6-9.3-16.8-15.6-24.1s-7.6-7.6-7.9-8.2-.3-2.7-.7-3.9c-1.1-3.3-4.1-4.8-7.4-4.5-7.9.6-7.6,14.6,1.6,13.2,1-.2,3.4-1.6,3.9-1.5,1.7.3,10.3,10.7,11.9,12.7,7.2,9.5,12.4,20.9,16.8,32l-6.3,14.8c-.4.4.1,1,.1,1.2,0,.6-.3,1-.2,1.6.5,2.4,3.9,13.3,5,15.2v1s-.9-.5-1-.6c-.4-.5-1.2-1.7-1.6-2.3-3.2-4.6-5.7-10.4-8.8-15.1-.2-.1-.4,0-.6,0-.2-.6-1.3-3.5-1.7-3.8s-.4,0-.6,0c-1.9-6.1-8.9-15.2-12.3-20.9s-2.2-4.9-3.9-6.9,0-.5-.2-.6l-36.3-27.6c-1.1-.9-2.4-.6-3.5-.8s0-.2-.3-.3-.4,0-.6,0c0-.4-1-.6-1.4-.7-4.6-1.6-9.5-2.7-14.1-4.1-11.3-3.4-23.4-7.9-34.9-10.3-.6-.1-2-.8-1.9.2,0,1.8,1.4,5.6,1.9,7.6Z"/>
      <path class="st24" d="M135.1,44"/>
      <polygon class="st26" points="110.8 58.4 96.1 21.6 59.4 63.3 110.8 58.4"/>
      <polygon class="st23" points="110.6 57.9 136.5 51 99.1 22.2 96.4 21.9 110.6 57.9"/>
      <polygon class="st26" points="96.1 85.5 110.8 58.4 164.2 102.5 96.1 85.5"/>
      <polygon class="st26" points="114.4 116.9 130.8 134.5 165 104 114.4 116.9"/>
      <polygon class="st26" points="129.3 137.9 93.8 154.4 119.4 182.1 129.3 137.9"/>
      <polygon class="st26" points="130.9 138.4 122.5 179.7 147.4 160.9 130.9 138.4"/>
      <path class="st22" d="M100.3,205l18.7-22.9,13,16.6s-15.7,6.2-31.7,6.4Z"/>
      <polygon class="st1" points="181.7 138.5 162 138.4 177.1 157.8 181.7 138.5"/>
      <polygon class="st26" points="212 134.5 194.9 160.1 221.6 181.2 212 134.5"/>
      <polygon class="st26" points="223 180.2 248.7 154.7 266.6 176.3 223 180.2"/>
      <polygon class="st0" points="214.4 135.2 248 153.7 229.4 118.2 214.4 135.2"/>
      <path class="st3" d="M263.8,141.2l-14.7,13.1,17.5,21.9s-2.7-34.5-2.8-35Z"/>
      <polygon class="st8" points="223 182.8 212 199.1 240.1 205.6 223 182.8"/>
      <polygon class="st7" points="176.8 106.2 211.3 135.5 194.9 160.1 176.8 106.2"/>
      <polygon class="st26" points="178.5 105 211.8 133.8 228.6 116.6 178.5 105"/>
      <polygon class="st26" points="179.8 102.1 232.2 61.5 246.2 84.3 179.8 102.1"/>
      <polygon class="st26" points="246.6 85.7 230.4 115.5 270.8 106 246.6 85.7"/>
      <polygon class="st4" points="234.3 61.5 248.2 84.3 283.7 64.5 234.3 61.5"/>
      <polygon class="st6" points="208.5 50 205.1 79.2 231 59.5 208.5 50"/>
      <polygon class="st26" points="245.1 22.9 233.7 58.6 282 62.3 245.1 22.9"/>
      <polygon class="st5" points="298.1 8.5 263.4 40.1 284.1 61.5 298.1 8.5"/>
      <polygon class="st2" points="162 82.9 180.6 83.7 176.6 100.1 166.8 100.7 162 82.9"/>
      <path class="st15" d="M43.4,5.8"/>
      <polygon class="st14" points="213.1 136.6 222.6 178.1 245.7 154.7 213.1 136.6"/>
      <polygon class="st11" points="96.1 86.2 72.3 106 110.4 114.4 96.1 86.2"/>
      <polygon class="st10" points="59.6 63.9 110.8 58.4 96.1 86.2 59.6 63.9"/>
      <polygon class="st17" points="132.1 135.9 148.8 158.6 165.7 104 132.1 135.9"/>
      <polygon class="st12" points="112.6 116.7 129.6 135 92.3 153.3 112.6 116.7"/>
      <polygon class="st13" points="220.7 180.5 210.3 196.9 194.9 160.1 220.7 180.5"/>
      <polygon class="st16" points="243.6 23.6 231.5 58.8 209.6 49.1 243.6 23.6"/>
      <path class="st9" d="M136.5,51l-25.9,6.9,54.3,44.1s-26-48.3-28.4-51Z"/>
      <polygon class="st18" points="79.1 138.9 92.3 153.3 75.4 175.9 79.1 138.9"/>
      <polygon class="st21" points="76.9 177.1 118.7 181.3 99.8 204.5 76.9 177.1"/>
      <polygon class="st20" points="43.4 5.8 80.2 39.6 95.4 21.6 43.4 5.8"/>
      <polygon class="st19" points="243.6 86.6 179.2 104.5 228 114.9 243.6 86.6"/>
    </g>
  </g>
</svg>